<?xml version="1.0" encoding="UTF-8" standalone="no"?>
<!-- Created with Inkscape (http://www.inkscape.org/) -->

<svg
   width="600"
   height="600"
   viewBox="0 0 158.75 158.75001"
   version="1.1"
   id="svg5"
   xmlns="http://www.w3.org/2000/svg"
   xmlns:svg="http://www.w3.org/2000/svg">
  <defs
     id="defs2" />
  <g
     id="layer1"
     transform="translate(-19.843746,-26.458333)">
    <path
       id="path6206"
       style="fill:#651ebf;fill-opacity:1;stroke-width:0.264583"
       d="M 36.380204,56.223958 V 162.05729 c 0,0 0,23.15104 9.921875,23.15104 h 26.458334 c -19.84375,-36.38021 -16.536459,-59.53125 -16.536459,-59.53125 9.921875,36.38021 33.072917,59.53125 33.072917,59.53125 h 36.380209 c -13.22917,-13.22916 -36.380209,-33.07291 -56.22396,-82.68229 26.458334,42.99479 76.06771,82.68229 76.06771,82.68229 h 33.07292 v 0 C 132.29167,142.21354 45.749162,55.710535 46.302079,56.223958 Z" />
    <path
       id="path7020"
       style="fill:#ddc600;fill-opacity:1;stroke:none;stroke-width:0.264583;stroke-opacity:1"
       d="m 19.843746,26.458333 v 19.84375 h 26.458334 62.83854 c 0,0 9.92188,2.1e-5 9.92188,19.84375 0,19.84373 -9.92188,19.84375 -9.92188,19.84375 H 85.98958 l 19.84375,19.843747 h 6.61458 c 0,0 26.45834,-4e-5 26.45834,-39.687497 0,-39.687462 -26.45834,-39.6875 -26.45834,-39.6875 z" />
  </g>
</svg>
